P3
# Modified by my app.
50 50
255
52
50
0
0
0
0
0
0
0
32
0
0
1
16
0
0
0
12
100
97
108
115
105
95
115
111
117
98
111
114
0
0
0
4
46
116
120
116
35
32
83
84
65
82
84
10
84
111
104
108
101
32
106
101
32
100
97
108
197
161
195
173
32
116
101
115
116
111
118
97
99
195
173
32
115
111
117
98
111
114
44
32
107
116
101
114
195
189
32
106
101
32
112
111
110
196
155
107
117
100
32
100
101
108
197
161
195
173
46
10
84
111
104
108
101
32
106
101
32
100
97
108
197
161
195
173
32
116
101
115
116
111
118
97
99
195
173
32
115
111
117
98
111
114
44
32
107
116
101
114
195
189
32
106
101
32
112
111
110
196
155
107
117
100
32
100
101
108
197
161
195
173
46
10
84
111
104
108
101
32
106
101
32
100
97
108
197
161
195
173
32
116
101
115
116
111
118
97
99
195
173
32
115
111
117
98
111
114
44
32
107
116
101
114
195
189
32
106
101
32
112
111
110
196
155
107
117
100
32
100
101
108
197
161
195
173
46
10
84
111
104
108
101
32
106
101
32
100
97
108
197
161
195
173
32
116
101
115
116
111
118
97
99
195
173
32
115
111
117
98
111
114
44
32
107
116
101
114
195
189
32
106
101
32
112
111
110
196
155
107
117
100
32
100
101
108
197
161
195
173
46
10
35
32
75
79
78
69
67
10
255
255
255
255
255
255
255
255
255
255
255
255
255
255
255
255
255
255
255
255
255
255
255
255
255
255
255
255
255
255
255
255
255
255
255
255
255
255
255
255
255
255
255
255
255
255
255
255
255
255
255
255
255
255
255
255
255
255
255
255
255
255
255
255
255
255
255
255
255
255
255
255
255
255
255
255
255
255
255
255
255
255
255
255
255
255
255
255
255
255
255
255
255
255
255
255
255
255
255
255
255
255
255
255
255
255
255
255
255
255
255
255
255
255
255
255
255
255
255
255
255
255
255
255
255
255
255
255
255
255
255
255
255
255
255
255
255
255
255
255
255
255
255
255
255
255
255
255
255
255
255
255
255
255
255
255
255
255
255
255
255
255
255
255
255
255
255
255
255
255
255
255
255
255
255
255
255
255
255
255
255
255
255
255
255
255
255
255
255
255
255
255
255
255
255
255
255
255
255
255
255
255
255
255
255
255
255
255
255
255
255
255
255
255
255
255
255
255
255
255
255
255
255
255
255
255
255
255
255
255
255
255
255
255
255
255
255
255
255
255
255
255
255
255
255
255
255
255
255
255
255
255
255
255
255
255
255
255
255
255
255
255
255
255
255
255
255
255
255
255
255
255
255
255
255
255
255
255
255
255
255
255
255
255
255
255
255
255
255
255
255
255
255
255
255
255
255
255
255
255
255
255
255
255
255
255
255
255
255
255
255
255
255
255
255
255
255
255
255
255
255
255
255
255
255
255
255
255
255
255
255
255
255
255
255
255
255
255
255
255
255
255
255
255
255
255
255
255
255
255
255
255
255
255
255
255
253
252
251
240
238
232
239
238
231
239
238
231
239
238
231
245
244
239
255
255
255
255
255
255
255
255
255
255
255
255
255
255
255
255
255
255
255
255
255
255
255
255
255
255
255
255
255
255
255
255
255
255
255
255
255
255
255
255
255
255
255
255
255
255
255
255
255
255
255
255
255
255
255
255
255
255
255
255
255
255
255
255
255
255
255
255
255
255
255
255
255
255
255
255
255
255
255
255
255
255
255
255
255
255
255
255
255
255
255
255
255
255
255
255
255
255
255
255
255
255
255
255
255
255
255
255
255
255
255
255
255
255
255
255
255
255
255
255
251
250
248
227
223
211
197
190
158
173
161
100
165
151
60
179
167
97
186
176
111
189
178
114
183
172
105
174
161
86
160
145
45
184
175
131
211
205
183
237
236
228
255
255
255
255
255
255
255
255
255
255
255
255
255
255
255
255
255
255
255
255
255
255
255
255
255
255
255
255
255
255
255
255
255
255
255
255
255
255
255
255
255
255
255
255
255
255
255
255
255
255
255
255
255
255
255
255
255
255
255
255
255
255
255
255
255
255
255
255
255
255
255
255
255
255
255
255
255
255
255
255
255
255
255
255
255
255
255
255
255
255
255
255
255
255
255
255
255
255
255
255
255
255
243
242
237
202
195
167
166
152
69
196
187
132
224
218
175
244
239
201
252
248
210
251
245
199
251
245
197
251
245
194
251
245
195
251
245
197
250
245
204
236
228
184
213
203
152
180
167
97
176
164
109
221
217
201
253
252
251
255
255
255
255
255
255
255
255
255
255
255
255
255
255
255
255
255
255
255
255
255
255
255
255
255
255
255
255
255
255
255
255
255
255
255
255
255
255
255
255
255
255
255
255
255
255
255
255
255
255
255
255
255
255
255
255
255
255
255
255
255
255
255
255
255
255
255
255
255
255
255
255
255
255
255
255
255
255
255
255
255
255
255
255
255
255
255
251
250
248
204
198
171
168
155
71
215
208
162
248
244
209
252
245
196
250
241
172
249
238
149
248
236
133
248
236
131
248
235
129
247
234
125
247
234
121
247
233
116
246
232
114
248
235
140
250
236
165
252
241
194
237
227
184
195
183
123
173
161
99
229
226
215
255
255
255
255
255
255
255
255
255
255
255
255
255
255
255
255
255
255
255
255
255
255
255
255
255
255
255
255
255
255
255
255
255
255
255
255
255
255
255
255
255
255
255
255
255
255
255
255
255
255
255
255
255
255
255
255
255
255
255
255
255
255
255
255
255
255
255
255
255
255
255
255
255
255
255
255
255
255
255
255
255
235
233
224
171
159
95
207
199
150
249
245
208
251
244
188
249
238
151
249
237
142
249
238
143
249
238
143
249
238
142
249
237
140
248
237
137
248
236
133
248
235
129
247
234
124
247
233
118
246
232
112
246
230
105
247
225
100
250
228
139
252
237
185
236
224
180
179
165
93
197
190
158
252
251
250
255
255
255
255
255
255
255
255
255
255
255
255
255
255
255
255
255
255
255
255
255
255
255
255
255
255
255
255
255
255
255
255
255
255
255
255
255
255
255
255
255
255
255
255
255
255
255
255
255
255
255
255
255
255
255
255
255
255
255
255
255
255
255
255
255
255
255
255
255
255
255
255
222
218
203
170
156
77
234
229
190
252
246
199
249
239
154
249
238
144
249
239
148
249
239
151
250
239
152
250
239
152
250
239
151
249
239
149
249
238
146
249
237
141
248
237
137
248
235
131
247
234
125
247
233
118
246
232
111
246
229
104
247
224
98
249
218
92
251
224
144
252
237
193
206
192
138
176
165
110
246
245
241
255
255
255
255
255
255
255
255
255
255
255
255
255
255
255
255
255
255
255
255
255
255
255
255
255
255
255
255
255
255
255
255
255
255
255
255
255
255
255
255
255
255
255
255
255
255
255
255
255
255
255
255
255
255
255
255
255
255
255
255
255
255
255
255
255
255
219
215
198
179
167
98
245
240
203
251
243
181
249
237
142
249
239
148
250
239
153
250
240
157
250
241
160
250
241
161
250
241
161
250
241
160
250
240
158
250
240
154
249
239
149
249
238
144
248
237
138
248
236
131
247
234
124
247
233
117
246
231
109
247
227
102
248
221
96
249
215
89
251
213
106
253
232
181
221
206
156
174
162
101
246
245
241
255
255
255
255
255
255
255
255
255
255
255
255
255
255
255
255
255
255
255
255
255
255
255
255
255
255
255
255
255
255
255
255
255
255
255
255
255
255
255
255
255
255
255
255
255
255
255
255
255
255
255
255
255
255
255
255
255
255
255
255
223
219
205
178
166
95
247
243
206
250
241
171
249
237
142
249
239
149
250
240
155
250
241
161
251
242
165
251
242
169
251
243
171
251
243
171
251
242
169
251
242
166
250
241
162
250
240
157
249
239
151
249
238
144
248
237
137
248
235
129
247
234
122
247
232
113
246
230
106
247
224
99
248
218
92
250
211
86
251
207
88
253
229
176
224
208
158
172
160
99
249
249
246
255
255
255
255
255
255
255
255
255
255
255
255
255
255
255
255
255
255
255
255
255
255
255
255
255
255
255
255
255
255
255
255
255
255
255
255
255
255
255
255
255
255
255
255
255
255
255
255
255
255
255
255
255
255
238
237
230
170
158
82
242
237
200
250
241
170
249
237
139
249
238
147
250
240
155
250
241
162
251
242
168
251
243
174
252
244
178
252
244
180
252
244
180
252
244
178
251
243
175
251
243
170
250
241
164
250
240
157
249
239
150
249
237
142
248
236
134
248
235
126
247
233
117
246
231
109
247
227
102
248
220
95
249
214
88
250
207
81
252
202
84
254
227
175
213
197
145
189
180
141
255
255
255
255
255
255
255
255
255
255
255
255
255
255
255
255
255
255
255
255
255
255
255
255
255
255
255
255
255
255
255
255
255
255
255
255
255
255
255
255
255
255
255
255
255
255
255
255
255
255
255
252
252
251
175
163
106
229
224
181
250
242
179
248
236
135
249
238
144
250
239
152
250
241
160
251
242
168
251
244
175
238
231
171
134
130
96
127
124
92
229
223
171
252
246
187
252
245
182
251
244
177
251
243
170
250
241
162
250
240
154
207
198
121
109
104
57
154
146
77
243
229
118
246
232
112
246
229
104
248
222
97
249
215
90
250
209
83
251
202
76
253
199
89
254
229
183
189
173
109
218
213
196
255
255
255
255
255
255
255
255
255
255
255
255
255
255
255
255
255
255
255
255
255
255
255
255
255
255
255
255
255
255
255
255
255
255
255
255
255
255
255
255
255
255
255
255
255
255
255
255
213
207
187
199
190
135
251
245
198
248
235
130
248
237
138
249
238
147
250
240
156
251
242
165
251
243
173
252
245
181
123
119
88
0
0
0
0
0
0
99
96
74
250
244
193
252
246
190
252
245
183
251
243
175
251
242
167
233
224
148
48
46
25
0
0
0
0
0
0
168
159
80
247
233
114
246
230
106
247
224
98
249
217
91
250
210
84
251
203
77
252
197
70
254
203
117
246
225
182
167
154
75
248
247
244
255
255
255
255
255
255
255
255
255
255
255
255
255
255
255
255
255
255
255
255
255
255
255
255
255
255
255
255
255
255
255
255
255
255
255
255
255
255
255
255
255
255
249
248
246
167
154
76
245
240
200
248
237
145
248
235
131
249
237
140
249
239
149
250
241
159
251
242
168
251
244
177
227
221
166
0
0
0
0
0
0
0
0
0
0
0
0
214
210
170
253
247
195
252
246
187
252
244
179
251
243
170
179
173
116
0
0
0
0
0
0
0
0
0
51
47
20
243
229
114
246
231
107
247
225
99
248
218
92
250
211
85
251
204
78
252
197
71
254
190
64
255
217
159
213
195
142
205
198
172
255
255
255
255
255
255
255
255
255
255
255
255
255
255
255
255
255
255
255
255
255
255
255
255
255
255
255
255
255
255
255
255
255
255
255
255
255
255
255
255
255
255
213
208
188
205
196
142
250
243
183
247
234
122
248
236
132
249
237
141
249
239
151
250
241
160
251
242
169
252
244
179
195
190
144
0
0
0
0
0
0
0
0
0
0
0
0
174
171
140
253
248
199
252
246
190
252
245
181
251
243
172
127
122
82
0
0
0
0
0
0
0
0
0
0
0
0
221
208
103
246
231
108
247
225
100
248
218
93
250
211
86
251
205
78
252
198
71
254
191
64
255
192
91
250
228
186
167
153
71
249
249
246
255
255
255
255
255
255
255
255
255
255
255
255
255
255
255
255
255
255
255
255
255
255
255
255
255
255
255
255
255
255
255
255
255
255
255
255
255
255
255
170
158
93
241
235
193
248
236
142
247
234
122
248
236
132
249
237
141
249
239
151
250
241
160
251
242
169
252
244
179
170
165
124
0
0
0
0
0
0
0
0
0
0
0
0
170
166
136
253
248
199
253
246
190
252
245
181
251
243
172
109
105
70
0
0
0
0
0
0
0
0
0
0
0
0
200
188
92
246
231
108
247
225
100
248
218
93
250
211
86
251
205
78
252
198
71
254
191
64
255
184
57
255
217
162
204
187
130
218
214
196
255
255
255
255
255
255
255
255
255
255
255
255
255
255
255
255
255
255
255
255
255
255
255
255
255
255
255
255
255
255
255
255
255
255
255
255
237
235
227
181
170
101
251
244
195
246
232
112
247
234
121
248
235
131
249
237
140
249
239
149
250
240
159
251
242
168
251
244
177
177
172
131
0
0
0
0
0
0
0
0
0
0
0
0
169
165
133
253
247
195
252
246
187
252
244
179
251
243
170
118
113
77
0
0
0
0
0
0
0
0
0
0
0
0
208
196
100
246
231
107
247
225
99
248
218
92
250
211
85
251
204
78
252
197
71
254
190
64
255
184
57
255
199
118
236
216
170
186
176
134
255
255
255
255
255
255
255
255
255
255
255
255
255
255
255
255
255
255
255
255
255
255
255
255
255
255
255
255
255
255
255
255
255
255
255
255
213
208
188
211
201
149
249
238
168
246
232
110
247
233
120
248
235
129
248
237
138
249
238
147
250
240
156
251
242
165
251
243
173
207
201
155
0
0
0
0
0
0
0
0
0
0
0
0
188
183
146
252
246
190
252
245
183
251
243
175
251
242
167
146
141
99
0
0
0
0
0
0
0
0
0
0
0
0
229
216
110
246
230
106
247
224
98
249
217
91
250
210
84
251
203
77
252
196
70
254
190
63
255
184
57
255
184
63
254
230
187
164
149
55
251
250
249
255
255
255
255
255
255
255
255
255
255
255
255
255
255
255
255
255
255
255
255
255
255
255
255
255
255
255
255
255
255
255
255
255
191
183
146
231
221
176
249
232
143
246
231
108
247
233
117
248
235
126
248
236
135
249
238
143
250
239
152
250
241
160
251
242
168
242
235
177
35
34
26
0
0
0
0
0
0
0
0
0
231
225
176
252
245
182
251
244
177
251
243
170
250
241
162
200
192
134
0
0
0
0
0
0
0
0
0
102
98
66
247
233
117
246
229
104
248
222
97
249
215
90
250
209
83
251
202
76
253
195
69
254
188
62
255
183
56
255
183
56
255
221
169
189
173
109
235
232
224
255
255
255
255
255
255
255
255
255
255
255
255
255
255
255
255
255
255
255
255
255
255
255
255
255
255
255
255
255
255
255
255
255
176
164
109
244
235
193
248
227
119
246
230
105
247
232
114
247
234
122
248
235
131
249
237
139
249
238
147
250
240
155
250
241
162
251
242
170
179
175
140
0
0
0
0
0
0
157
154
125
252
244
180
251
243
174
251
242
169
250
241
163
250
240
157
246
236
156
110
106
78
0
0
0
0
0
0
209
199
121
246
231
109
247
227
101
248
220
95
249
213
88
251
207
81
252
200
74
253
194
67
254
187
60
255
183
56
255
183
56
255
214
154
207
189
133
222
218
202
255
255
255
255
255
255
255
255
255
255
255
255
255
255
255
255
255
255
255
255
255
255
255
255
255
255
255
255
255
255
255
255
255
156
140
12
252
241
201
248
221
95
247
227
102
246
232
110
247
233
118
248
235
126
248
236
134
249
237
141
249
239
148
250
240
155
250
241
161
251
243
175
207
202
161
203
199
159
249
242
180
251
242
169
251
242
166
250
241
162
250
240
156
249
239
150
249
238
144
242
232
155
193
186
133
219
211
141
247
233
121
246
230
105
247
224
99
249
218
92
250
211
85
251
205
79
252
198
72
253
192
65
255
185
58
255
183
56
255
183
56
255
205
134
217
200
149
208
202
178
255
255
255
255
255
255
255
255
255
255
255
255
255
255
255
255
255
255
255
255
255
255
255
255
255
255
255
255
255
255
255
255
255
164
149
50
253
241
199
248
218
92
247
224
99
246
230
105
247
232
113
247
234
121
248
235
128
248
236
135
249
237
142
249
239
147
250
239
152
250
240
157
250
241
161
250
241
164
250
241
161
250
241
160
250
240
157
250
240
154
249
239
149
249
238
143
248
237
137
248
235
131
248
235
130
247
233
117
246
231
109
247
227
102
248
221
95
249
215
89
250
208
83
251
202
76
253
196
69
254
189
63
255
184
57
255
183
56
255
183
56
255
204
132
222
201
151
203
197
170
255
255
255
255
255
255
255
255
255
255
255
255
255
255
255
255
255
255
255
255
255
255
255
255
255
255
255
255
255
255
255
255
255
165
151
55
253
240
197
249
214
89
248
221
95
247
226
101
246
231
108
247
233
115
247
234
122
248
235
128
248
236
134
249
237
140
249
238
144
249
239
148
249
239
150
250
239
152
250
239
152
249
239
151
249
239
149
249
238
145
249
237
141
248
236
136
248
235
130
247
234
124
247
233
118
246
232
111
246
229
104
247
223
98
249
217
92
250
211
86
251
205
79
252
199
73
253
193
66
254
187
60
255
183
56
255
183
56
255
183
56
255
204
132
222
202
151
203
197
170
255
255
255
255
255
255
255
255
255
255
255
255
255
255
255
255
255
255
255
255
255
255
255
255
255
255
255
255
255
255
255
255
255
157
141
15
253
239
198
250
211
85
249
216
91
248
222
97
241
223
101
227
214
100
247
233
115
247
234
121
248
235
126
248
236
131
248
236
136
249
237
139
249
237
141
249
238
142
249
238
143
249
237
142
249
237
140
248
237
137
248
236
133
248
235
128
247
234
123
247
233
117
246
232
111
246
230
105
247
225
99
248
219
94
249
214
88
250
208
82
251
202
76
253
196
70
254
190
63
235
170
56
255
183
56
255
183
56
255
183
56
255
205
133
218
200
150
206
200
175
255
255
255
255
255
255
255
255
255
255
255
255
255
255
255
255
255
255
255
255
255
255
255
255
255
255
255
255
255
255
255
255
255
172
160
99
247
232
190
251
211
101
250
212
86
249
218
92
248
223
99
212
197
106
228
215
101
247
232
113
247
233
119
247
234
123
248
235
127
248
235
130
248
236
132
248
236
133
248
236
133
248
236
132
248
235
131
248
235
128
247
234
125
247
234
120
247
233
116
246
232
110
246
230
105
247
225
100
248
220
95
249
215
89
250
210
84
251
204
78
252
198
72
253
193
66
189
142
56
250
186
78
255
183
56
255
183
56
255
183
56
255
213
152
209
191
136
221
217
201
255
255
255
255
255
255
255
255
255
255
255
255
255
255
255
255
255
255
255
255
255
255
255
255
255
255
255
255
255
255
255
255
255
189
180
141
234
218
173
252
213
125
250
208
82
249
213
87
249
218
92
248
224
111
167
157
97
220
207
96
246
232
110
247
233
115
247
233
118
247
234
121
247
234
123
247
234
124
247
234
124
247
234
123
247
234
122
247
233
119
247
233
116
246
232
112
246
231
108
246
228
103
247
224
99
248
220
95
249
215
90
250
210
84
251
205
79
252
200
74
253
194
68
171
128
48
220
173
95
255
183
56
255
183
56
255
183
56
255
183
56
255
220
167
192
176
113
233
230
220
255
255
255
255
255
255
255
255
255
255
255
255
255
255
255
255
255
255
255
255
255
255
255
255
255
255
255
255
255
255
255
255
255
211
205
183
214
198
147
253
219
151
251
203
77
250
208
82
249
212
87
249
217
91
245
222
123
127
119
77
200
186
86
246
230
106
246
231
109
246
232
112
247
232
113
247
233
114
247
233
115
247
232
114
247
232
112
246
232
110
246
231
107
246
229
104
247
226
101
248
223
97
248
219
93
249
215
89
250
210
84
251
205
79
252
200
74
251
194
69
170
130
53
180
147
89
255
187
71
255
183
56
255
183
56
255
183
56
255
183
57
254
229
186
167
152
65
249
248
246
255
255
255
255
255
255
255
255
255
255
255
255
255
255
255
255
255
255
255
255
255
255
255
255
255
255
255
255
255
255
255
255
255
234
231
222
186
172
106
254
228
178
252
198
71
251
202
76
251
207
81
250
211
85
249
215
89
237
214
124
103
96
68
147
135
69
230
212
96
247
228
103
246
229
105
246
230
105
246
230
106
246
230
105
246
229
104
247
227
102
247
225
100
248
223
98
248
220
95
249
217
91
249
213
87
250
209
83
251
205
79
252
200
74
236
184
68
136
107
55
142
118
77
253
191
88
255
183
56
255
183
56
255
183
56
255
183
56
255
197
112
239
219
175
179
169
119
255
255
255
255
255
255
255
255
255
255
255
255
255
255
255
255
255
255
255
255
255
255
255
255
255
255
255
255
255
255
255
255
255
255
255
255
254
254
254
168
155
83
247
227
185
253
200
103
252
197
71
252
201
75
251
205
79
250
209
83
250
213
88
237
213
126
114
105
76
58
58
56
160
146
76
217
196
91
247
223
98
247
223
98
248
223
98
248
222
97
248
221
95
248
219
93
249
217
91
249
214
88
250
211
85
250
207
81
251
203
77
229
183
73
176
139
66
75
68
59
141
118
80
251
193
98
255
183
56
255
183
56
255
183
56
255
183
56
255
183
56
255
215
156
209
191
137
214
209
189
255
255
255
255
255
255
255
255
255
255
255
255
255
255
255
255
255
255
255
255
255
255
255
255
255
255
255
255
255
255
255
255
255
255
255
255
255
255
255
207
201
177
212
195
142
255
217
157
253
191
65
253
195
69
252
199
73
251
203
76
251
206
80
250
209
85
246
216
124
155
141
97
63
63
63
68
68
68
98
92
74
155
139
82
183
162
86
204
179
88
205
179
87
207
179
87
205
175
85
205
173
83
185
155
81
162
136
78
113
98
75
71
71
71
67
67
67
159
133
90
251
195
102
255
183
56
255
183
56
255
183
56
255
183
56
255
183
56
255
188
79
252
229
186
167
152
64
246
245
242
255
255
255
255
255
255
255
255
255
255
255
255
255
255
255
255
255
255
255
255
255
255
255
255
255
255
255
255
255
255
255
255
255
255
255
255
255
255
255
246
245
241
167
152
68
250
228
185
255
194
94
254
189
63
253
193
67
252
196
70
252
199
73
251
202
76
251
204
78
251
214
112
211
187
121
110
102
82
76
76
76
80
80
80
83
83
83
86
86
86
88
88
88
89
89
89
89
89
89
88
88
88
86
86
86
83
83
83
79
79
79
102
93
80
207
170
107
255
194
94
255
183
56
255
183
56
255
183
56
255
183
56
255
183
56
255
183
56
255
213
151
219
201
150
199
192
161
255
255
255
255
255
255
255
255
255
255
255
255
255
255
255
255
255
255
255
255
255
255
255
255
255
255
255
255
255
255
255
255
255
255
255
255
255
255
255
255
255
255
255
255
255
205
199
173
209
191
137
255
220
166
255
184
57
254
187
60
254
190
63
253
193
66
253
195
69
252
198
71
252
199
73
252
203
86
249
211
120
208
183
121
154
137
102
89
89
88
91
91
91
94
94
94
95
95
95
95
95
95
93
93
93
91
91
91
141
124
97
202
168
111
249
197
110
255
187
73
255
183
56
255
183
56
255
183
56
255
183
56
255
183
56
255
183
56
255
193
99
250
227
185
168
154
72
243
242
237
255
255
255
255
255
255
255
255
255
255
255
255
255
255
255
255
255
255
255
255
255
255
255
255
255
255
255
255
255
255
255
255
255
255
255
255
255
255
255
255
255
255
255
255
255
250
249
247
171
158
91
239
218
174
255
206
136
255
183
56
255
184
57
254
186
60
254
189
62
254
191
64
253
192
66
253
194
67
253
195
68
253
198
80
253
206
108
249
208
122
232
197
126
213
182
122
210
179
121
212
180
120
231
193
123
247
200
117
255
198
102
255
188
75
255
183
56
255
183
56
255
183
56
255
183
56
255
183
56
255
183
56
255
183
56
255
185
69
255
225
177
199
183
124
211
205
183
255
255
255
255
255
255
255
255
255
255
255
255
255
255
255
255
255
255
255
255
255
255
255
255
255
255
255
255
255
255
255
255
255
255
255
255
255
255
255
255
255
255
255
255
255
255
255
255
255
255
255
232
229
219
174
158
78
250
227
184
255
197
110
255
183
56
255
183
56
255
183
56
255
184
57
255
186
59
254
187
60
254
188
61
254
188
61
254
188
61
254
188
61
254
187
61
254
188
64
255
189
73
255
185
63
255
183
56
255
183
56
255
183
56
255
183
56
255
183
56
255
183
56
255
183
56
255
183
56
255
183
56
255
183
56
255
183
56
255
218
162
224
205
156
179
169
119
252
252
251
255
255
255
255
255
255
255
255
255
255
255
255
255
255
255
255
255
255
255
255
255
255
255
255
255
255
255
255
255
255
255
255
255
255
255
255
255
255
255
255
255
255
255
255
255
255
255
255
254
254
254
252
252
252
209
204
183
185
168
100
252
228
185
255
196
110
255
183
56
255
183
56
255
183
56
255
183
56
255
183
56
255
183
56
255
183
56
255
183
56
255
183
56
255
183
56
255
183
56
255
183
56
255
183
56
255
183
56
255
183
56
255
183
56
255
183
56
255
183
56
255
183
56
255
183
56
255
183
56
255
183
56
255
183
57
255
214
155
232
213
167
169
156
86
240
239
235
251
251
251
254
254
254
255
255
255
255
255
255
255
255
255
255
255
255
255
255
255
255
255
255
255
255
255
255
255
255
255
255
255
255
255
255
255
255
255
255
255
255
255
255
255
255
255
255
253
253
253
251
251
251
248
248
248
245
245
245
197
190
161
188
171
104
250
227
184
255
202
125
255
183
56
255
183
56
255
183
56
255
183
56
255
183
56
255
183
56
255
183
56
255
183
56
255
183
56
255
183
56
255
183
56
255
183
56
255
183
56
255
183
56
255
183
56
255
183
56
255
183
56
255
183
56
255
183
56
255
183
56
255
186
70
255
219
166
232
213
167
165
151
68
225
223
215
244
244
244
246
246
246
249
249
249
252
252
252
254
254
254
255
255
255
255
255
255
255
255
255
255
255
255
255
255
255
255
255
255
255
255
255
255
255
255
255
255
255
255
255
255
255
255
255
253
253
253
250
250
250
247
247
247
245
245
245
241
241
241
238
238
238
195
188
161
180
164
92
244
223
179
255
215
156
255
186
71
255
183
56
255
183
56
255
183
56
255
183
56
255
183
56
255
183
56
255
183
56
255
183
56
255
183
56
255
183
56
255
183
56
255
183
56
255
183
56
255
183
56
255
183
56
255
183
56
255
183
56
255
197
110
255
226
180
220
202
151
168
156
89
220
218
210
237
237
237
240
240
240
243
243
243
246
246
246
249
249
249
252
252
252
255
255
255
255
255
255
255
255
255
255
255
255
255
255
255
255
255
255
255
255
255
255
255
255
255
255
255
255
255
255
254
254
254
251
251
251
249
249
249
246
246
246
243
243
243
239
239
239
236
236
236
233
233
233
206
203
187
166
152
70
221
203
153
254
228
184
255
206
135
255
185
67
255
183
56
255
183
56
255
183
56
255
183
56
255
183
56
255
183
56
255
183
56
255
183
56
255
183
56
255
183
56
255
183
56
255
183
56
255
183
56
255
192
96
255
217
160
246
225
182
192
176
112
175
164
116
221
220
216
232
232
232
235
235
235
238
238
238
241
241
241
244
244
244
247
247
247
250
250
250
253
253
253
255
255
255
255
255
255
255
255
255
255
255
255
255
255
255
255
255
255
255
255
255
255
255
255
255
255
255
254
254
254
251
251
251
248
248
248
246
246
246
242
242
242
239
239
239
236
236
236
233
233
233
230
230
230
218
217
212
178
168
125
180
164
91
230
211
164
254
229
185
255
213
152
255
198
114
255
184
61
255
183
56
255
183
56
255
183
56
255
183
56
255
183
56
255
183
56
255
183
56
255
189
83
255
204
131
255
221
168
247
226
184
210
192
137
164
150
67
195
189
168
224
224
223
228
228
228
231
231
231
235
235
235
238
238
238
241
241
241
244
244
244
247
247
247
250
250
250
253
253
253
255
255
255
255
255
255
255
255
255
255
255
255
255
255
255
255
255
255
255
255
255
255
255
255
255
255
255
255
255
255
252
252
252
250
250
250
246
246
246
244
244
244
241
241
241
238
238
238
235
235
235
231
231
231
228
228
228
225
225
225
207
204
194
174
164
117
172
157
76
210
192
139
238
218
173
253
231
189
255
224
175
255
217
161
255
214
155
255
214
155
255
214
155
255
221
169
255
227
181
248
227
185
227
208
160
195
179
118
163
150
68
187
180
152
216
216
213
223
223
223
227
227
227
230
230
230
233
233
233
236
236
236
239
239
239
242
242
242
245
245
245
248
248
248
251
251
251
254
254
254
255
255
255
255
255
255
255
255
255
255
255
255
255
255
255
255
255
255
255
255
255
255
255
255
255
255
255
255
255
255
255
255
255
252
252
252
249
249
249
246
246
246
244
244
244
241
241
241
238
238
238
235
235
235
233
233
233
230
230
230
227
227
227
224
224
224
214
212
206
192
186
162
173
163
112
162
147
49
181
165
93
196
180
120
202
184
126
204
185
127
199
182
124
190
174
110
172
158
80
162
148
70
179
171
132
200
196
182
218
218
216
223
223
223
226
226
226
228
228
228
231
231
231
234
234
234
237
237
237
239
239
239
242
242
242
245
245
245
248
248
248
251
251
251
253
253
253
255
255
255
255
255
255
255
255
255
255
255
255
255
255
255
255
255
255
255
255
255
255
255
255
255
255
255
255
255
255
255
255
255
255
255
255
255
255
255
253
253
253
251
251
251
248
248
248
246
246
246
243
243
243
241
241
241
238
238
238
236
236
236
234
234
234
232
232
232
230
230
230
228
228
228
226
226
226
223
223
223
213
211
204
206
203
191
200
196
179
200
195
178
201
197
181
210
207
199
216
215
211
224
224
224
225
225
225
227
227
227
229
229
229
231
231
231
233
233
233
235
235
235
237
237
237
239
239
239
242
242
242
245
245
245
247
247
247
250
250
250
252
252
252
254
254
254
255
255
255
255
255
255
255
255
255
255
255
255
255
255
255
255
255
255
255
255
255
255
255
255
255
255
255
255
255
255
255
255
255
255
255
255
255
255
255
255
255
255
255
255
255
255
255
255
253
253
253
251
251
251
249
249
249
247
247
247
245
245
245
243
243
243
241
241
241
239
239
239
238
238
238
236
236
236
235
235
235
234
234
234
233
233
233
232
232
232
232
232
232
232
232
232
232
232
232
232
232
232
233
233
233
234
234
234
234
234
234
236
236
236
237
237
237
238
238
238
240
240
240
242
242
242
244
244
244
246
246
246
248
248
248
250
250
250
252
252
252
254
254
254
255
255
255
255
255
255
255
255
255
255
255
255
255
255
255
255
255
255
255
255
255
255
255
255
255
255
255
255
255
255
255
255
255
255
255
255
255
255
255
255
255
255
255
255
255
255
255
255
255
255
255
255
255
255
255
255
255
255
255
255
255
255
255
253
253
253
252
252
252
251
251
251
249
249
249
247
247
247
246
246
246
245
245
245
244
244
244
243
243
243
242
242
242
242
242
242
241
241
241
241
241
241
241
241
241
241
241
241
242
242
242
243
243
243
243
243
243
244
244
244
246
246
246
247
247
247
248
248
248
250
250
250
251
251
251
253
253
253
254
254
254
255
255
255
255
255
255
255
255
255
255
255
255
255
255
255
255
255
255
255
255
255
255
255
255
255
255
255
255
255
255
255
255
255
255
255
255
255
255
255
255
255
255
255
255
255
255
255
255
255
255
255
255
255
255
255
255
255
255
255
255
255
255
255
255
255
255
255
255
255
255
255
255
255
255
255
255
255
255
255
255
255
255
255
255
254
254
254
254
254
254
253
253
253
252
252
252
252
252
252
251
251
251
251
251
251
251
251
251
251
251
251
251
251
251
251
251
251
251
251
251
251
251
251
252
252
252
253
253
253
253
253
253
254
254
254
255
255
255
255
255
255
255
255
255
255
255
255
255
255
255
255
255
255
255
255
255
255
255
255
255
255
255
255
255
255
255
255
255
255
255
255
255
255
255
255
255
255
255
255
255
255
255
255
255
255
255
255
255
255
255
255
255
255
255
255
255
255
255
255
255
255
255
255
255
255
255
255
255
255
255
255
255
255
255
255
255
255
255
255
255
255
255
255
255
255
255
255
255
255
255
255
255
255
255
255
255
255
255
255
255
255
255
255
255
255
255
255
255
255
255
255
255
255
255
255
255
255
255
255
255
255
255
255
255
255
255
255
255
255
255
255
255
255
255
255
255
255
255
255
255
255
255
255
255
255
255
255
255
255
255
255
255
255
255
255
255
255
255
255
255
255
255
255
255
255
255
255
255
255
255
255
255
255
255
255
255
255
255
255
255
255
255
255
255
255
255
255
255
255
255
255
255
255
255
255
255
255
255
255
255
255
255
255
255
255
255
255
255
255
255
255
255
255
255
255
255
255
255
255
255
255
255
255
255
255
255
255
255
255
255
255
255
255
255
255
255
255
255
255
255
255
255
255
255
255
255
255
255
255
255
255
255
255
255
255
255
255
255
255
255
255
255
255
255
255
255
255
255
255
255
255
255
255
255
255
255
255
255
255
255
255
255
255
255
255
255
255
255
255
255
255
255
255
255
255
255
255
255
255
255
255
255
255
255
255
255
255
255
255
255
255
255
255
255
255
255
255
255
255
255
255
255
255
255
255
255
255
255
255
255
255
255
255
255
255
255
255
255
255
255
255
255
255
255
255
255
255
255
255
255
255
255
255
255
255
255
255
255
255
255
255
255
255
255
255
255
255
255
255
255
255
255
255
255
255
255
255
255
255
255
255
255
255
255
255
255
255
255
255
255
255
255
255
255
255
255
255
255
255
255
255
255
255
255
255
255
255
255
255
255
255
255
255
255
255
255
255
255
255
255
255
255
255
255
255
255
255
255
255
255
255
255
255
255
255
255
255
255
255
255
255
255
255
255
255
255
255
255
255
255
255
255
255
255
255
255
255
255
255
255
255
255
255
255
255
255
255
255
255
255
255
255
255
255
255
255
255
255
255
255
255
255
255
255
255
255
255
255
255
255
255
255
255
