P3
# Modified by my app.
10 10
255
52
50
0
0
0
46
0
0
0
35
0
0
0
5
0
0
0
7
115
111
117
98
111
114
49
0
0
0
4
46
116
120
116
0
0
1
121
133
13
22
80
68
65
84
65
10
0
0
0
88
0
0
0
32
0
0
0
6
0
0
0
4
116
101
115
116
0
0
0
4
46
116
120
116
0
0
1
121
101
46
230
56
65
104
111
106
33
10
0
0
0
0
0
0
0
33
0
0
0
63
0
0
0
5
115
109
97
108
108
0
0
0
4
46
112
112
109
0
0
1
121
100
244
43
16
80
51
10
51
32
50
10
50
53
53
10
50
53
53
10
48
10
48
10
48
10
50
53
53
10
48
10
48
10
48
10
50
53
53
10
50
53
53
10
50
53
53
10
48
10
50
53
53
10
50
53
53
10
50
53
53
10
48
10
48
10
48
10
255
255
255
255
255
255
255
255
255
255
255
255
255
255
255
255
255
255
255
255
255
255
255
255
255
255
255
255
255
255
255
255
255
255
255
255
255
255
255
255
255
255
255
255
255
255
255
255
255
255
255
255
255
255
255
255
255
255
255
255
255
255
255
255
255
255
255
255
255
255
255
255
255
255
255
255
255
255
255
255
255
255
255
255
255
255
255
255
255
255
255
255
255
255
255
255
255
255
255
255
255
255
255
255
255
255
255
255
255
255
255
255
